<svg xmlns="http://www.w3.org/2000/svg"><symbol fill="none" id="icon-arrow" viewBox="0 0 45 44"><path d="M9.375 15.583 22.5 28.417l13.125-12.834" stroke="#7AD828" stroke-width="2" stroke-linecap="square"/></symbol><symbol fill="none" id="icon-copy" viewBox="0 0 24 24"><path d="M6 11c0-2.828 0-4.243.879-5.121C7.757 5 9.172 5 12 5h3c2.828 0 4.243 0 5.121.879C21 6.757 21 8.172 21 11v5c0 2.828 0 4.243-.879 5.121C19.243 22 17.828 22 15 22h-3c-2.828 0-4.243 0-5.121-.879C6 20.243 6 18.828 6 16v-5Z" stroke="#17210F" stroke-width="1.5"/><path d="M6 19a3 3 0 0 1-3-3v-6c0-3.771 0-5.657 1.172-6.828C5.343 2 7.229 2 11 2h4a3 3 0 0 1 3 3" stroke="#17210F" stroke-width="1.5"/></symbol><symbol fill="none" id="icon-logo" viewBox="0 0 131 47"><path fill-rule="evenodd" clip-rule="evenodd" d="m31.959 30.259-4.939-8.693 6.363-11.2h12.729l-6.365 11.2-5.846 10.29c1.016.593 2.192.91 3.458.91h9.82c2.502 0 4.652-1.237 5.91-3.404 1.258-2.168 1.27-4.65.032-6.83L43.785 6.1c-1.248-2.198-3.416-3.46-5.941-3.46h-9.82c-2.503 0-4.652 1.237-5.91 3.404-1.259 2.167-1.27 4.65-.032 6.83l.54.95 4.398 7.742-6.364 11.2H7.93l6.364-11.2 5.847-10.29c-1.017-.594-2.192-.911-3.458-.911h-9.82c-2.503 0-4.652 1.238-5.91 3.405S-.318 18.42.92 20.6l9.335 16.432c1.25 2.198 3.417 3.46 5.942 3.46h9.82c2.503 0 4.652-1.237 5.91-3.405 1.258-2.167 1.27-4.65.032-6.829Z" fill="#7AD927" transform="translate(1 1)"/><path d="M74.812.771c4.259 0 6.09 1.98 6.09 6.015v.934c0 2.69-.823 4.407-2.653 5.267 2.204.859 3.063 2.839 3.063 5.603v2.13c0 4.034-2.13 6.2-6.238 6.2H68.61V.771h6.201ZM72.72 4.507v6.91h1.607c1.531 0 2.465-.672 2.465-2.764V7.197c0-1.868-.635-2.69-2.092-2.69h-1.98Zm0 10.646v8.032h2.354c1.382 0 2.13-.635 2.13-2.578v-2.279c0-2.428-.785-3.175-2.653-3.175h-1.83Zm15.177-3.362h5.64v3.736h-5.64v7.658h7.097v3.735H83.788V.771h11.206v3.736h-7.097v7.284Zm13.751.598h5.305v3.736h-5.305V26.92h-4.109V.771h10.871v3.736h-6.762v7.882ZM110.381.771h4.109v26.15h-4.109V.77Zm5.918 0H129v3.736h-4.296V26.92h-4.109V4.507h-4.296V.771Z" fill="#fff" transform="translate(1 1)"/><path d="M129 30.158H68.484v14.07H129v-14.07Z" fill="#7AD927" transform="translate(1 1)"/><path d="M72.63 33.27h1.744l3.922 6.364h.038V33.27h1.494v8.728h-1.743l-3.91-6.225h-.05v6.225h-1.494V33.27Zm14.658 8.717h-1.52V40.88h-.074c-.158.34-.407.631-.747.872-.332.24-.738.36-1.22.36-.573 0-1.034-.136-1.383-.41a2.26 2.26 0 0 1-.734-1.046 3.969 3.969 0 0 1-.212-1.283v-3.96h1.507v3.724c0 .531.124.946.373 1.245.25.299.594.448 1.034.448.473 0 .834-.158 1.083-.473.25-.324.374-.731.374-1.22v-3.724h1.519v6.575Zm3.744-5.392v3.225c0 .3.013.52.038.66a.537.537 0 0 0 .249.337c.133.083.344.124.635.124.149 0 .34-.021.572-.062v1.058c-.05.016-.19.038-.423.063-.232.024-.46.037-.685.037-.573 0-.996-.084-1.27-.25-.274-.165-.448-.377-.523-.634-.066-.258-.1-.594-.1-1.009v-3.549H88.38v-1.182h1.145V33.27h1.507v2.142h1.494v1.182h-1.494Zm2.915-1.182h1.494v1.045h.087c.109-.29.304-.535.586-.734.291-.208.66-.311 1.108-.311.158 0 .32.02.486.062l-.063 1.407a1.507 1.507 0 0 0-.323-.075 2.037 2.037 0 0 0-.35-.025c-.505 0-.887.137-1.145.411-.256.274-.386.731-.386 1.37v3.424h-1.494v-6.575Zm5.002 0h1.507v6.574h-1.507v-6.575Zm.735-1.158a.845.845 0 0 1-.623-.25.874.874 0 0 1-.249-.622c0-.25.084-.457.25-.623a.846.846 0 0 1 .622-.249.82.82 0 0 1 .622.262.83.83 0 0 1 .249.61c0 .24-.083.448-.249.622a.844.844 0 0 1-.622.25Zm4.736 2.34v3.225c0 .3.013.52.038.66a.537.537 0 0 0 .249.337c.133.083.345.124.635.124.149 0 .341-.021.573-.062v1.058a6.412 6.412 0 0 1-1.109.1c-.572 0-.996-.084-1.27-.25-.274-.165-.448-.377-.523-.634-.066-.258-.099-.594-.099-1.009v-3.549h-1.146v-1.182h1.146V33.27h1.506v2.142h1.495v1.182h-1.495Zm3.065-1.182h1.506v6.574h-1.506v-6.575Zm.734-1.158a.846.846 0 0 1-.622-.25.872.872 0 0 1-.249-.622c0-.25.083-.457.249-.623a.847.847 0 0 1 .622-.249c.249 0 .457.087.623.262.167.165.249.37.249.61s-.082.448-.249.622a.847.847 0 0 1-.623.25Zm5.398 7.832c-.681 0-1.257-.159-1.731-.474a2.933 2.933 0 0 1-1.046-1.245 4.073 4.073 0 0 1-.348-1.693c0-.606.116-1.167.348-1.681a2.916 2.916 0 0 1 1.046-1.258c.474-.315 1.05-.473 1.731-.473.68 0 1.253.158 1.719.473.473.315.821.731 1.046 1.245a4.06 4.06 0 0 1 .348 1.681c0 .607-.117 1.17-.348 1.694a2.817 2.817 0 0 1-1.046 1.258c-.466.315-1.039.473-1.719.473Zm0-1.245c.523 0 .925-.208 1.208-.623.281-.415.423-.934.423-1.557 0-.622-.142-1.136-.423-1.544-.283-.414-.685-.622-1.208-.622-.531 0-.939.208-1.22.622-.274.408-.411.922-.411 1.544 0 .623.141 1.142.423 1.557.282.415.685.623 1.208.623Zm4.455-5.43h1.52v1.071h.087a2.2 2.2 0 0 1 .747-.871c.349-.24.772-.361 1.27-.361.847 0 1.457.274 1.83.821.374.548.561 1.183.561 1.906v4.01h-1.507v-3.774c0-.539-.133-.955-.398-1.245-.258-.299-.614-.448-1.071-.448-.49 0-.868.158-1.133.473-.258.315-.386.722-.386 1.22v3.773h-1.52v-6.575Z" fill="#000" transform="translate(1 1)"/></symbol><symbol fill="none" id="icon-shape" viewBox="0 0 45 45"><path fill-rule="evenodd" clip-rule="evenodd" d="M.36 23.616c13.974-.504 21.696-8.804 21.192-22.779.504 13.975 8.804 21.697 22.779 21.193-13.975.504-21.697 8.804-21.194 22.779C22.634 30.834 14.334 23.112.36 23.616Z" fill="#020202"/></symbol></svg>