<svg width="60" height="61" viewBox="0 0 60 61" fill="none" xmlns="http://www.w3.org/2000/svg">
<circle cx="30" cy="30.5" r="30" fill="#7AD927"/>
<path fill-rule="evenodd" clip-rule="evenodd" d="M42.5 30.5C42.5 37.4036 36.9036 43 30 43C23.0964 43 17.5 37.4036 17.5 30.5C17.5 23.5964 23.0964 18 30 18C36.9036 18 42.5 23.5964 42.5 30.5ZM35.0379 26.7121C35.404 27.0782 35.404 27.6718 35.0379 28.0379L28.7879 34.2879C28.4218 34.654 27.8282 34.654 27.4621 34.2879L24.9621 31.7879C24.596 31.4218 24.596 30.8282 24.9621 30.4621C25.3282 30.096 25.9218 30.096 26.2879 30.4621L28.125 32.2992L30.9185 29.5056L33.7121 26.7121C34.0782 26.346 34.6718 26.346 35.0379 26.7121Z" fill="#0A0A0A"/>
</svg>
