<svg width="131" height="47" viewBox="0 0 131 47" fill="none" xmlns="http://www.w3.org/2000/svg">
	<g transform="translate(1, 1)">
		<path fill-rule="evenodd" clip-rule="evenodd"
			  d="M31.9587 30.2585L27.0203 21.5659L33.3832 10.3651H33.3845H46.1115L39.7473 21.5659L33.9012 31.8561C34.9173 32.4488 36.0927 32.7663 37.3591 32.7663H47.1786C49.6814 32.7663 51.8306 31.5286 53.0882 29.362C54.3471 27.1941 54.3583 24.7112 53.1206 22.5325L43.7855 6.10002C42.5365 3.90177 40.3687 2.63916 37.8435 2.63916H28.024C25.5212 2.63916 23.372 3.87737 22.1143 6.04436C20.8554 8.21147 20.8442 10.6946 22.0819 12.8734L22.6211 13.8236L27.0203 21.5659L20.6562 32.7663H7.92923L14.2934 21.5659L20.1395 11.2761C19.1234 10.6825 17.9479 10.365 16.6816 10.365H6.8621C4.35929 10.365 2.21011 11.6033 0.95248 13.7703C-0.306398 15.9374 -0.317606 18.4206 0.920104 20.5993L10.2552 37.0323C11.5041 39.23 13.672 40.4927 16.1972 40.4927H26.0167C28.5195 40.4927 30.6687 39.255 31.9264 37.0871C33.1852 34.9205 33.1964 32.4376 31.9587 30.2585Z"
			  fill="#7AD927"/>
		<path d="M74.8123 0.771484C79.0709 0.771484 80.9013 2.75132 80.9013 6.78571V7.71959C80.9013 10.4092 80.0794 12.1275 78.249 12.9867C80.453 13.8459 81.3122 15.8257 81.3122 18.59V20.7193C81.3122 24.7537 79.1829 26.9203 75.0738 26.9203H68.6113V0.771484H74.8123ZM72.7204 4.50703V11.4178H74.3267C75.8583 11.4178 76.7922 10.7454 76.7922 8.65348V7.19662C76.7922 5.32884 76.1571 4.50703 74.7003 4.50703H72.7204ZM72.7204 15.1533V23.1847H75.0738C76.456 23.1847 77.2031 22.5497 77.2031 20.6072V18.3285C77.2031 15.9004 76.4186 15.1533 74.5508 15.1533H72.7204ZM87.8967 11.7913H93.5374V15.5269H87.8967V23.1847H94.9942V26.9203H83.7876V0.771484H94.9942V4.50703H87.8967V11.7913ZM101.648 12.389H106.953V16.1246H101.648V26.9203H97.5394V0.771484H108.41V4.50703H101.648V12.389ZM110.381 0.771484H114.49V26.9203H110.381V0.771484ZM116.299 0.771484H129V4.50703H124.704V26.9203H120.595V4.50703H116.299V0.771484Z"
			  fill="white"/>
		<path d="M129 30.1577H68.4844V44.2283H129V30.1577Z" fill="#7AD927"/>
		<path d="M72.6309 33.2708H74.3741L78.2964 39.6337H78.3338V33.2708H79.828V41.9995H78.0847L74.1749 35.7736H74.1251V41.9995H72.6309V33.2708ZM87.2879 41.9871H85.7688V40.8788H85.694C85.5359 41.2188 85.2869 41.5101 84.9469 41.7505C84.6145 41.9908 84.2086 42.1116 83.7267 42.1116C83.1539 42.1116 82.6932 41.9746 82.3445 41.7007C81.9959 41.418 81.7506 41.0694 81.6099 40.6547C81.4692 40.2401 81.3982 39.8117 81.3982 39.3722V35.4125H82.9048V39.1356C82.9048 39.6673 83.0294 40.0819 83.2784 40.3808C83.5274 40.6796 83.8723 40.829 84.3119 40.829C84.7851 40.829 85.1462 40.6709 85.3952 40.3559C85.6442 40.0321 85.7688 39.6249 85.7688 39.1356V35.4125H87.2879V41.9871ZM91.0321 36.5954V39.8204C91.0321 40.1193 91.0446 40.3397 91.0695 40.4804C91.1031 40.6211 91.1865 40.7332 91.3185 40.8166C91.4518 40.9 91.6634 40.9411 91.9536 40.9411C92.103 40.9411 92.2947 40.9199 92.5264 40.8788V41.9372C92.4765 41.9534 92.3359 41.9746 92.103 41.9995C91.8714 42.0244 91.6423 42.0369 91.4182 42.0369C90.8454 42.0369 90.422 41.9534 90.1481 41.7878C89.8741 41.6222 89.6998 41.4105 89.6251 41.1528C89.5591 40.895 89.5255 40.5588 89.5255 40.1442V36.5954H88.3799V35.4125H89.5255V33.2708H91.0321V35.4125H92.5264V36.5954H91.0321ZM93.9471 35.4125H95.4413V36.4584H95.5285C95.6368 36.1683 95.8323 35.923 96.1137 35.7238C96.4051 35.5158 96.7737 35.4125 97.2219 35.4125C97.3801 35.4125 97.5419 35.4337 97.7075 35.4748L97.6453 36.8818C97.5208 36.8407 97.4137 36.8158 97.3215 36.8071C97.2306 36.7909 97.1149 36.7822 96.9729 36.7822C96.4674 36.7822 96.0851 36.9192 95.8273 37.1931C95.5708 37.467 95.4413 37.924 95.4413 38.5628V41.9871H93.9471V35.4125ZM98.949 35.4125H100.456V41.9871H98.949V35.4125ZM99.6837 34.2545C99.4346 34.2545 99.2267 34.1711 99.0611 34.0054C98.8955 33.8311 98.812 33.6232 98.812 33.3829C98.812 33.1338 98.8955 32.9259 99.0611 32.7603C99.2267 32.5947 99.4346 32.5112 99.6837 32.5112C99.9327 32.5112 100.141 32.5984 100.306 32.7727C100.472 32.9383 100.555 33.1425 100.555 33.3829C100.555 33.6232 100.472 33.8311 100.306 34.0054C100.141 34.1711 99.9327 34.2545 99.6837 34.2545ZM104.42 36.5954V39.8204C104.42 40.1193 104.433 40.3397 104.458 40.4804C104.491 40.6211 104.575 40.7332 104.707 40.8166C104.84 40.9 105.052 40.9411 105.342 40.9411C105.491 40.9411 105.683 40.9199 105.915 40.8788V41.9372C105.865 41.9534 105.724 41.9746 105.491 41.9995C105.26 42.0244 105.03 42.0369 104.806 42.0369C104.234 42.0369 103.81 41.9534 103.536 41.7878C103.262 41.6222 103.088 41.4105 103.013 41.1528C102.947 40.895 102.914 40.5588 102.914 40.1442V36.5954H101.768V35.4125H102.914V33.2708H104.42V35.4125H105.915V36.5954H104.42ZM107.485 35.4125H108.991V41.9871H107.485V35.4125ZM108.219 34.2545C107.97 34.2545 107.764 34.1711 107.597 34.0054C107.431 33.8311 107.348 33.6232 107.348 33.3829C107.348 33.1338 107.431 32.9259 107.597 32.7603C107.764 32.5947 107.97 32.5112 108.219 32.5112C108.468 32.5112 108.676 32.5984 108.842 32.7727C109.009 32.9383 109.091 33.1425 109.091 33.3829C109.091 33.6232 109.009 33.8311 108.842 34.0054C108.676 34.1711 108.468 34.2545 108.219 34.2545ZM113.617 42.0867C112.936 42.0867 112.36 41.9285 111.886 41.6135C111.421 41.2985 111.072 40.8826 110.84 40.3683C110.608 39.8541 110.492 39.2888 110.492 38.6749C110.492 38.0685 110.608 37.5081 110.84 36.9939C111.072 36.4709 111.421 36.0513 111.886 35.7363C112.36 35.4212 112.936 35.2631 113.617 35.2631C114.297 35.2631 114.87 35.4212 115.336 35.7363C115.809 36.0513 116.157 36.4672 116.382 36.9814C116.613 37.4957 116.73 38.056 116.73 38.6624C116.73 39.2688 116.613 39.8329 116.382 40.3559C116.157 40.8788 115.809 41.2985 115.336 41.6135C114.87 41.9285 114.297 42.0867 113.617 42.0867ZM113.617 40.8415C114.14 40.8415 114.542 40.6336 114.825 40.2189C115.106 39.8043 115.248 39.285 115.248 38.6624C115.248 38.0398 115.106 37.5256 114.825 37.1184C114.542 36.7038 114.14 36.4958 113.617 36.4958C113.086 36.4958 112.678 36.7038 112.397 37.1184C112.123 37.5256 111.986 38.0398 111.986 38.6624C111.986 39.285 112.127 39.8043 112.409 40.2189C112.691 40.6336 113.094 40.8415 113.617 40.8415ZM118.072 35.4125H119.592V36.4834H119.679C119.837 36.1434 120.086 35.8521 120.426 35.6117C120.775 35.3714 121.198 35.2506 121.696 35.2506C122.543 35.2506 123.153 35.5246 123.526 36.0724C123.9 36.6203 124.087 37.2554 124.087 37.9776V41.9871H122.58V38.2142C122.58 37.675 122.447 37.2591 122.182 36.969C121.924 36.6701 121.568 36.5207 121.111 36.5207C120.621 36.5207 120.243 36.6789 119.978 36.9939C119.72 37.3089 119.592 37.7161 119.592 38.2142V41.9871H118.072V35.4125Z"
			  fill="black"/>
	</g>
</svg>
